# Blender v2.78 (sub 0) OBJ File: 'armor.blend'
# www.blender.org
mtllib armor.mtl
o Cube_Cube.002
v -1.193360 -3.135760 -0.875574
v -1.625526 -1.261386 -0.680198
v -1.213760 0.844661 -0.868246
v -2.330605 -0.365504 -0.469132
v -2.330605 0.737990 -0.542739
v -1.531021 -0.237021 -1.206015
v -2.330605 0.145320 -0.630557
v -1.645718 -1.264010 -0.820458
v -1.233953 0.842036 -1.008506
v -1.551213 -0.239645 -1.346275
v -1.300418 1.399559 -1.054739
v -2.417263 1.292889 -0.729232
v -1.349658 0.470289 -1.132527
v -2.466503 0.529119 -0.795077
v -1.436317 0.872433 -1.557936
v -2.553162 0.931262 -1.220486
v -1.421363 0.245284 -1.330620
v -2.538208 0.304114 -0.993170
v -1.508022 0.647428 -1.756029
v -2.624867 0.706258 -1.418579
v -2.721720 0.579277 -0.450315
v -3.024755 1.052132 -0.636808
v -3.003311 0.666409 -1.128062
v -2.761866 0.333343 -0.702654
v -2.978209 0.431593 -1.326155
v -2.736764 0.098526 -0.900746
v 0.000000 -3.097083 -1.256879
v 0.000000 -1.219723 -1.256879
v 1.193360 -3.135760 -0.875574
v 1.625526 -1.261386 -0.680198
v 1.213760 0.844661 -0.868246
v 0.000000 0.819489 -0.993478
v 2.330605 -0.365504 -0.469132
v 2.330605 0.737990 -0.542739
v 1.531021 -0.237021 -1.206015
v 0.000000 -0.531213 -1.307743
v 2.330605 0.145320 -0.630557
v 1.645718 -1.264010 -0.820458
v 0.000000 -1.222347 -1.397139
v 1.233953 0.842036 -1.008506
v 0.000000 0.816865 -1.133738
v 1.551213 -0.239645 -1.346275
v 0.000000 -0.533837 -1.448003
v 1.300418 1.399559 -1.054739
v 2.417263 1.292889 -0.729232
v 1.349658 0.470289 -1.132527
v 2.466503 0.529119 -0.795077
v 1.436317 0.872433 -1.557936
v 2.553162 0.931262 -1.220486
v 1.421363 0.245284 -1.330620
v 2.538208 0.304114 -0.993170
v 1.508022 0.647428 -1.756029
v 2.624867 0.706258 -1.418579
v 2.721720 0.579277 -0.450315
v 3.024755 1.052132 -0.636808
v 3.003311 0.666409 -1.128062
v 2.761866 0.333343 -0.702654
v 2.978209 0.431593 -1.326155
v 2.736764 0.098526 -0.900746
v -1.388559 -3.111094 0.000000
v -1.803019 -1.219723 0.000000
v -1.193360 -3.135760 0.875574
v -1.625526 -1.261386 0.680198
v -1.256879 1.088080 0.000000
v -1.213760 0.844661 0.868246
v -2.330605 -0.533547 0.000000
v -2.330605 -0.365504 0.469132
v -2.330605 0.962048 0.000000
v -2.330605 0.737990 0.542739
v -1.531021 -0.237021 1.206015
v -1.546843 -0.137208 0.000000
v -2.330605 0.145320 0.630557
v -2.330605 0.145320 0.000000
v -1.645718 -1.264010 0.820458
v -1.233953 0.842036 1.008506
v -1.551213 -0.239645 1.346275
v -1.343538 1.642979 0.000000
v -1.300418 1.399559 1.054739
v -2.417263 1.516946 0.000000
v -2.417263 1.292889 0.729232
v -1.349658 0.470289 1.132527
v -2.466503 0.529119 0.795077
v -1.436317 0.872433 1.557936
v -2.553162 0.931262 1.220486
v -1.421363 0.245284 1.330620
v -2.538208 0.304114 0.993170
v -1.508022 0.647428 1.756029
v -2.624867 0.706258 1.418579
v -2.812059 0.784315 0.000000
v -2.721720 0.579277 0.450315
v -3.115095 1.257170 0.000000
v -3.024755 1.052132 0.636808
v -3.003311 0.666409 1.128062
v -2.761866 0.333343 0.702654
v -2.978209 0.431593 1.326155
v -2.736764 0.098526 0.900746
v 0.000000 -3.071403 0.000000
v 0.000000 -0.687587 0.000000
v 1.388559 -3.111094 0.000000
v 1.803019 -1.219723 0.000000
v 0.000000 -3.097083 1.256879
v 0.000000 -1.219723 1.256879
v 1.193360 -3.135760 0.875574
v 1.625526 -1.261386 0.680198
v 0.000000 0.932124 0.000000
v 1.256879 1.088080 0.000000
v 1.213760 0.844661 0.868246
v 0.000000 0.819489 0.993478
v 2.330605 -0.533547 0.000000
v 2.330605 -0.365504 0.469132
v 2.330605 0.962048 0.000000
v 2.330605 0.737990 0.542739
v 1.531021 -0.237021 1.206015
v 0.000000 -0.531213 1.307743
v 0.000000 0.145320 0.000000
v 1.546843 -0.137208 0.000000
v 2.330605 0.145320 0.630557
v 2.330605 0.145320 0.000000
v 1.645718 -1.264010 0.820458
v 0.000000 -1.222347 1.397139
v 1.233953 0.842036 1.008506
v 0.000000 0.816865 1.133738
v 1.551213 -0.239645 1.346275
v 0.000000 -0.533837 1.448003
v 1.343538 1.642979 0.000000
v 1.300418 1.399559 1.054739
v 2.417263 1.516946 0.000000
v 2.417263 1.292889 0.729232
v 1.349658 0.470289 1.132527
v 2.466503 0.529119 0.795077
v 1.436317 0.872433 1.557936
v 2.553162 0.931262 1.220486
v 1.421363 0.245284 1.330620
v 2.538208 0.304114 0.993170
v 1.508022 0.647428 1.756029
v 2.624867 0.706258 1.418579
v 2.812059 0.784315 0.000000
v 2.721720 0.579277 0.450315
v 3.115095 1.257170 0.000000
v 3.024755 1.052132 0.636808
v 3.003311 0.666409 1.128062
v 2.761866 0.333343 0.702654
v 2.978209 0.431593 1.326155
v 2.736764 0.098526 0.900746
vn -0.9541 -0.2031 -0.2199
vn -0.3221 0.0122 -0.9466
vn 0.0343 -0.9991 0.0267
vn -0.9773 0.1608 0.1377
vn 0.0625 0.9805 -0.1861
vn -1.0000 0.0000 0.0000
vn -0.5325 0.5828 -0.6138
vn -0.7869 -0.5883 -0.1862
vn -0.6238 -0.2870 -0.7270
vn -0.3716 0.2942 -0.8805
vn 0.0313 -0.9994 0.0164
vn -0.0482 0.2645 -0.9632
vn -0.2206 -0.3003 -0.9280
vn -0.9614 0.2402 0.1339
vn 0.0185 0.9996 -0.0200
vn -0.1394 0.9571 -0.2542
vn 0.2164 -0.7019 0.6786
vn 0.9879 0.1551 0.0050
vn 0.9615 -0.0731 -0.2650
vn 0.3665 -0.8415 0.3969
vn -0.2007 0.7571 -0.6217
vn 0.9511 -0.0246 -0.3079
vn -0.2326 -0.7300 -0.6427
vn -0.1785 0.6816 -0.7096
vn 0.1785 -0.6816 0.7096
vn -0.8457 -0.5303 0.0595
vn -0.8798 -0.3511 0.3204
vn -0.9093 -0.3208 0.2650
vn 0.3325 -0.6464 -0.6868
vn -0.4419 0.7380 -0.5099
vn 0.6414 -0.5370 0.5479
vn -0.3599 0.8830 -0.3012
vn 0.5013 -0.7225 0.4762
vn 0.9541 -0.2031 -0.2199
vn 0.3221 0.0122 -0.9466
vn -0.0343 -0.9991 0.0267
vn 0.9773 0.1608 0.1377
vn -0.0625 0.9805 -0.1861
vn 1.0000 0.0000 0.0000
vn 0.5325 0.5828 -0.6138
vn 0.7869 -0.5883 -0.1862
vn 0.6238 -0.2870 -0.7270
vn 0.3716 0.2942 -0.8805
vn -0.0313 -0.9994 0.0164
vn 0.0482 0.2645 -0.9632
vn 0.2206 -0.3003 -0.9280
vn 0.9614 0.2402 0.1339
vn -0.0185 0.9996 -0.0200
vn 0.1394 0.9571 -0.2542
vn -0.2164 -0.7019 0.6786
vn -0.9879 0.1551 0.0050
vn -0.9615 -0.0731 -0.2650
vn -0.3665 -0.8415 0.3969
vn 0.2007 0.7571 -0.6217
vn -0.9511 -0.0246 -0.3079
vn 0.2326 -0.7300 -0.6427
vn 0.1785 0.6816 -0.7096
vn -0.1785 -0.6816 0.7096
vn 0.8457 -0.5303 0.0595
vn 0.8798 -0.3511 0.3204
vn 0.9093 -0.3208 0.2650
vn -0.3325 -0.6464 -0.6868
vn 0.4419 0.7380 -0.5099
vn -0.6414 -0.5370 0.5479
vn 0.3599 0.8830 -0.3012
vn -0.5013 -0.7225 0.4762
vn 0.0000 0.0000 -1.0000
vn -0.9541 -0.2031 0.2199
vn -0.3221 0.0122 0.9466
vn 0.0343 -0.9991 -0.0267
vn -0.9773 0.1608 -0.1377
vn 0.0625 0.9805 0.1861
vn -0.5325 0.5828 0.6138
vn -0.7869 -0.5883 0.1862
vn -0.6238 -0.2870 0.7270
vn -0.3716 0.2942 0.8805
vn 0.0313 -0.9994 -0.0164
vn -0.0482 0.2645 0.9632
vn -0.2206 -0.3003 0.9280
vn -0.9614 0.2402 -0.1339
vn 0.0185 0.9996 0.0200
vn -0.1394 0.9571 0.2542
vn 0.2164 -0.7019 -0.6786
vn 0.9879 0.1551 -0.0050
vn 0.9615 -0.0731 0.2650
vn 0.3665 -0.8415 -0.3969
vn -0.2007 0.7571 0.6217
vn 0.9511 -0.0246 0.3079
vn -0.2326 -0.7300 0.6427
vn -0.1785 0.6816 0.7096
vn 0.1785 -0.6816 -0.7096
vn -0.8457 -0.5303 -0.0595
vn -0.8798 -0.3511 -0.3204
vn -0.9093 -0.3208 -0.2650
vn 0.3325 -0.6464 0.6868
vn -0.4419 0.7380 0.5099
vn 0.6414 -0.5370 -0.5479
vn -0.3599 0.8830 0.3012
vn 0.5013 -0.7225 -0.4762
vn 0.9541 -0.2031 0.2199
vn 0.3221 0.0122 0.9466
vn -0.0343 -0.9991 -0.0267
vn 0.9773 0.1608 -0.1377
vn -0.0625 0.9805 0.1861
vn 0.5325 0.5828 0.6138
vn 0.7869 -0.5883 0.1862
vn 0.6238 -0.2870 0.7270
vn 0.3716 0.2942 0.8805
vn -0.0313 -0.9994 -0.0164
vn 0.0482 0.2645 0.9632
vn 0.2206 -0.3003 0.9280
vn 0.9614 0.2402 -0.1339
vn -0.0185 0.9996 0.0200
vn 0.1394 0.9571 0.2542
vn -0.2164 -0.7019 -0.6786
vn -0.9879 0.1551 -0.0050
vn -0.9615 -0.0731 0.2650
vn -0.3665 -0.8415 -0.3969
vn 0.2007 0.7571 0.6217
vn -0.9511 -0.0246 0.3079
vn 0.2326 -0.7300 0.6427
vn 0.1785 0.6816 0.7096
vn -0.1785 -0.6816 -0.7096
vn 0.8457 -0.5303 -0.0595
vn 0.8798 -0.3511 -0.3204
vn 0.9093 -0.3208 -0.2650
vn -0.3325 -0.6464 0.6868
vn 0.4419 0.7380 0.5099
vn -0.6414 -0.5370 -0.5479
vn 0.3599 0.8830 0.3012
vn -0.5013 -0.7225 -0.4762
usemtl None
s off
f 60//1 61//1 2//1 1//1
f 1//2 2//2 28//2 27//2
f 60//3 1//3 27//3 97//3
f 2//4 6//4 10//4 8//4
f 3//5 64//5 105//5 32//5
f 7//6 73//6 68//6 5//6
f 16//7 20//7 25//7 23//7
f 2//8 61//8 66//8 4//8
f 6//9 2//9 4//9 7//9
f 3//10 6//10 7//10 5//10
f 4//6 66//6 73//6 7//6
f 28//11 2//11 8//11 39//11
f 43//12 10//12 9//12 41//12
f 39//13 8//13 10//13 43//13
f 6//14 3//14 9//14 10//14
f 3//15 32//15 41//15 9//15
f 77//16 11//16 12//16 79//16
f 3//17 5//17 14//17 13//17
f 64//18 3//18 11//18 77//18
f 15//19 13//19 17//19 19//19
f 5//20 68//20 89//20 21//20
f 12//21 11//21 15//21 16//21
f 11//22 3//22 13//22 15//22
f 17//23 18//23 20//23 19//23
f 16//24 15//24 19//24 20//24
f 13//25 14//25 18//25 17//25
f 21//26 89//26 91//26 22//26
f 21//27 22//27 23//27 24//27
f 24//28 23//28 25//28 26//28
f 20//29 18//29 26//29 25//29
f 12//30 16//30 23//30 22//30
f 18//31 14//31 24//31 26//31
f 79//32 12//32 22//32 91//32
f 14//33 5//33 21//33 24//33
f 99//34 29//34 30//34 100//34
f 29//35 27//35 28//35 30//35
f 27//6 97//6 98//6 28//6
f 99//36 97//36 27//36 29//36
f 30//37 38//37 42//37 35//37
f 31//38 32//38 105//38 106//38
f 115//6 105//6 32//6 36//6
f 37//39 34//39 111//39 118//39
f 49//40 56//40 58//40 53//40
f 30//41 33//41 109//41 100//41
f 35//42 37//42 33//42 30//42
f 31//43 34//43 37//43 35//43
f 33//39 37//39 118//39 109//39
f 98//6 115//6 36//6 28//6
f 28//44 39//44 38//44 30//44
f 43//45 41//45 40//45 42//45
f 39//46 43//46 42//46 38//46
f 36//6 43//6 39//6 28//6
f 32//6 41//6 43//6 36//6
f 35//47 42//47 40//47 31//47
f 31//48 40//48 41//48 32//48
f 125//49 127//49 45//49 44//49
f 31//50 46//50 47//50 34//50
f 106//51 125//51 44//51 31//51
f 48//52 52//52 50//52 46//52
f 34//53 54//53 137//53 111//53
f 45//54 49//54 48//54 44//54
f 44//55 48//55 46//55 31//55
f 50//56 52//56 53//56 51//56
f 49//57 53//57 52//57 48//57
f 46//58 50//58 51//58 47//58
f 54//59 55//59 139//59 137//59
f 54//60 57//60 56//60 55//60
f 57//61 59//61 58//61 56//61
f 53//62 58//62 59//62 51//62
f 45//63 55//63 56//63 49//63
f 51//64 59//64 57//64 47//64
f 127//65 139//65 55//65 45//65
f 47//66 57//66 54//66 34//66
f 97//67 60//67 61//67 98//67
f 60//68 62//68 63//68 61//68
f 62//69 101//69 102//69 63//69
f 60//70 97//70 101//70 62//70
f 63//71 74//71 76//71 70//71
f 65//72 108//72 105//72 64//72
f 71//67 64//67 105//67 115//67
f 71//67 73//67 68//67 64//67
f 72//6 69//6 68//6 73//6
f 84//73 93//73 95//73 88//73
f 63//74 67//74 66//74 61//74
f 70//75 72//75 67//75 63//75
f 65//76 69//76 72//76 70//76
f 67//6 72//6 73//6 66//6
f 61//67 66//67 73//67 71//67
f 61//67 71//67 115//67 98//67
f 102//77 120//77 74//77 63//77
f 124//78 122//78 75//78 76//78
f 120//79 124//79 76//79 74//79
f 70//80 76//80 75//80 65//80
f 65//81 75//81 122//81 108//81
f 77//82 79//82 80//82 78//82
f 65//83 81//83 82//83 69//83
f 64//84 77//84 78//84 65//84
f 68//67 79//67 77//67 64//67
f 83//85 87//85 85//85 81//85
f 69//86 90//86 89//86 68//86
f 80//87 84//87 83//87 78//87
f 78//88 83//88 81//88 65//88
f 85//89 87//89 88//89 86//89
f 84//90 88//90 87//90 83//90
f 68//67 89//67 91//67 79//67
f 81//91 85//91 86//91 82//91
f 90//92 92//92 91//92 89//92
f 90//93 94//93 93//93 92//93
f 94//94 96//94 95//94 93//94
f 88//95 95//95 96//95 86//95
f 80//96 92//96 93//96 84//96
f 86//97 96//97 94//97 82//97
f 79//98 91//98 92//98 80//98
f 82//99 94//99 90//99 69//99
f 97//67 98//67 100//67 99//67
f 99//100 100//100 104//100 103//100
f 103//101 104//101 102//101 101//101
f 101//6 102//6 98//6 97//6
f 99//102 103//102 101//102 97//102
f 104//103 113//103 123//103 119//103
f 107//104 106//104 105//104 108//104
f 116//67 115//67 105//67 106//67
f 115//6 114//6 108//6 105//6
f 116//67 106//67 111//67 118//67
f 117//39 118//39 111//39 112//39
f 132//105 136//105 143//105 141//105
f 104//106 100//106 109//106 110//106
f 113//107 104//107 110//107 117//107
f 107//108 113//108 117//108 112//108
f 110//39 109//39 118//39 117//39
f 100//67 116//67 118//67 109//67
f 98//6 102//6 114//6 115//6
f 100//67 98//67 115//67 116//67
f 102//109 104//109 119//109 120//109
f 124//110 123//110 121//110 122//110
f 120//111 119//111 123//111 124//111
f 114//6 102//6 120//6 124//6
f 108//6 114//6 124//6 122//6
f 113//112 107//112 121//112 123//112
f 107//113 108//113 122//113 121//113
f 125//114 126//114 128//114 127//114
f 107//115 112//115 130//115 129//115
f 106//116 107//116 126//116 125//116
f 111//67 106//67 125//67 127//67
f 131//117 129//117 133//117 135//117
f 112//118 111//118 137//118 138//118
f 128//119 126//119 131//119 132//119
f 126//120 107//120 129//120 131//120
f 133//121 134//121 136//121 135//121
f 132//122 131//122 135//122 136//122
f 111//67 127//67 139//67 137//67
f 129//123 130//123 134//123 133//123
f 138//124 137//124 139//124 140//124
f 138//125 140//125 141//125 142//125
f 142//126 141//126 143//126 144//126
f 136//127 134//127 144//127 143//127
f 128//128 132//128 141//128 140//128
f 134//129 130//129 142//129 144//129
f 127//130 128//130 140//130 139//130
f 130//131 112//131 138//131 142//131
