# Blender v2.78 (sub 0) OBJ File: 'armor2.blend'
# www.blender.org
mtllib armor2.mtl
o Cube_Cube.002
v 1.193317 -3.135760 0.875632
v 1.625492 -1.261386 0.680277
v 1.213718 0.844661 0.868305
v 2.330582 -0.365504 0.469246
v 2.330578 0.737990 0.542853
v 1.530962 -0.237021 1.206090
v 2.330574 0.145320 0.630671
v 1.181334 -1.060035 0.994641
v 0.434473 -1.041172 1.462169
v 1.077849 0.635911 1.128058
v 0.208425 0.622411 1.231814
v 1.290623 -0.081805 1.371122
v 0.207557 -0.291421 1.426164
v 1.300367 1.399559 1.054802
v 2.417228 1.292889 0.729350
v 1.349603 0.470289 1.132593
v 2.466464 0.529119 0.795198
v 1.436241 0.872433 1.558006
v 2.553102 0.931262 1.220611
v 1.421299 0.245284 1.330689
v 2.538160 0.304114 0.993294
v 1.507936 0.647428 1.756102
v 2.624798 0.706258 1.418707
v 2.721698 0.579277 0.450448
v 3.024724 1.052132 0.636956
v 3.003256 0.666409 1.128209
v 2.761832 0.333343 0.702788
v 2.978144 0.431593 1.326301
v 2.736720 0.098526 0.900880
v 1.382066 1.456816 1.131514
v 2.392706 1.360291 0.837014
v 1.505017 0.979823 1.586860
v 2.515658 1.033058 1.281553
v 2.221488 2.246629 2.056439
v 1.233904 0.842036 1.008566
v 1.155660 -0.471095 1.367049
v 0.423286 -0.684732 1.409927
v 1.645678 -1.264010 0.820538
v 1.551148 -0.239645 1.346351
v 1.092474 0.635008 1.196917
v 0.223050 0.621508 1.300673
v 1.305248 -0.082709 1.439981
v 0.222181 -0.292324 1.495023
v 1.195958 -1.060938 1.063500
v 0.449097 -1.042075 1.531028
v 0.437910 -0.685635 1.478786
v 1.170284 -0.471998 1.435908
v 0.876214 -0.710060 1.432067
v 0.693218 0.443735 1.340805
v 1.388559 -3.111094 0.000068
v 1.803019 -1.219723 0.000088
v 1.193403 -3.135760 -0.875516
v 1.625559 -1.261386 -0.680119
v 1.256879 1.088080 0.000061
v 1.213802 0.844661 -0.868187
v 2.330605 -0.533547 0.000114
v 2.330628 -0.365504 -0.469018
v 2.330605 0.962048 0.000114
v 2.330631 0.737990 -0.542625
v 1.531079 -0.237021 -1.205941
v 1.546843 -0.137208 0.000075
v 2.330636 0.145320 -0.630443
v 2.330605 0.145320 0.000114
v 1.181431 -1.060035 -0.994525
v 0.434615 -1.041172 -1.462126
v 1.077960 0.635911 -1.127952
v 0.208545 0.622411 -1.231794
v 1.290757 -0.081805 -1.370996
v 0.207696 -0.291421 -1.426144
v 1.343538 1.642979 0.000066
v 1.300470 1.399559 -1.054675
v 2.417263 1.516946 0.000118
v 2.417299 1.292889 -0.729114
v 1.349714 0.470289 -1.132461
v 2.466542 0.529119 -0.794957
v 1.436393 0.872433 -1.557866
v 2.553221 0.931262 -1.220362
v 1.421428 0.245284 -1.330550
v 2.538257 0.304114 -0.993046
v 1.508108 0.647428 -1.755955
v 2.624936 0.706258 -1.418451
v 2.812059 0.784315 0.000137
v 2.721742 0.579277 -0.450182
v 3.115095 1.257170 0.000152
v 3.024786 1.052132 -0.636661
v 3.003366 0.666409 -1.127916
v 2.761901 0.333343 -0.702519
v 2.978273 0.431593 -1.326010
v 2.736808 0.098526 -0.900613
v 1.382176 1.456816 -1.131379
v 2.392788 1.360291 -0.836781
v 1.505172 0.979823 -1.586713
v 2.515783 1.033058 -1.281307
v 2.221689 2.246629 -2.056222
v 1.234002 0.842036 -1.008446
v 1.155793 -0.471095 -1.366936
v 0.423423 -0.684732 -1.409885
v 1.645759 -1.264010 -0.820378
v 1.551279 -0.239645 -1.346200
v 1.092591 0.635008 -1.196810
v 0.223177 0.621508 -1.300652
v 1.305388 -0.082709 -1.439854
v 0.222327 -0.292324 -1.495002
v 1.196062 -1.060938 -1.063383
v 0.449247 -1.042075 -1.530984
v 0.438055 -0.685635 -1.478743
v 1.170424 -0.471998 -1.435794
v 1.230532 -0.943216 -1.910649
v 0.973585 0.676892 -2.178766
v -0.000061 -3.097083 1.256879
v -0.000061 -1.219723 1.256879
v -1.193403 -3.135760 0.875516
v -1.625559 -1.261386 0.680119
v -1.213802 0.844661 0.868187
v -0.000048 0.819489 0.993478
v -2.330628 -0.365504 0.469018
v -2.330631 0.737990 0.542625
v -1.531079 -0.237021 1.205941
v -0.000064 -0.531213 1.307743
v -2.330636 0.145320 0.630443
v -1.181431 -1.060035 0.994525
v -0.434615 -1.041172 1.462126
v -1.077960 0.635911 1.127952
v -0.208545 0.622411 1.231794
v -1.290757 -0.081805 1.370996
v -0.207696 -0.291421 1.426144
v -1.300470 1.399559 1.054675
v -2.417299 1.292889 0.729114
v -1.349714 0.470289 1.132461
v -2.466542 0.529119 0.794957
v -1.436393 0.872433 1.557866
v -2.553221 0.931262 1.220362
v -1.421428 0.245284 1.330550
v -2.538257 0.304114 0.993046
v -1.508108 0.647428 1.755955
v -2.624936 0.706258 1.418451
v -2.721742 0.579277 0.450182
v -3.024786 1.052132 0.636661
v -3.003366 0.666409 1.127916
v -2.761901 0.333343 0.702519
v -2.978273 0.431593 1.326010
v -2.736808 0.098526 0.900613
v -1.382176 1.456816 1.131379
v -2.392788 1.360291 0.836781
v -1.505172 0.979823 1.586713
v -2.515783 1.033058 1.281307
v -2.221689 2.246629 2.056222
v -1.234002 0.842036 1.008446
v -0.000055 0.816865 1.133738
v -1.155793 -0.471095 1.366936
v -0.423423 -0.684732 1.409885
v -1.645759 -1.264010 0.820378
v -0.000068 -1.222347 1.397139
v -0.000071 -0.533837 1.448003
v -1.551279 -0.239645 1.346200
v -1.092591 0.635008 1.196810
v -0.223177 0.621508 1.300652
v -1.305388 -0.082709 1.439854
v -0.222327 -0.292324 1.495002
v -1.196062 -1.060938 1.063383
v -0.449247 -1.042075 1.530984
v -0.438055 -0.685635 1.478743
v -1.170424 -0.471998 1.435794
v -0.876354 -0.710060 1.431981
v -0.693349 0.443735 1.340737
v 0.000000 -3.071403 0.000000
v 0.000000 -0.687587 0.000000
v -1.388559 -3.111094 -0.000068
v -1.803019 -1.219723 -0.000088
v 0.000061 -3.097083 -1.256879
v 0.000061 -1.219723 -1.256879
v -1.193317 -3.135760 -0.875632
v -1.625492 -1.261386 -0.680277
v 0.000000 0.932124 0.000000
v -1.256879 1.088080 -0.000061
v -1.213718 0.844661 -0.868305
v 0.000048 0.819489 -0.993478
v -2.330605 -0.533547 -0.000114
v -2.330582 -0.365504 -0.469246
v -2.330605 0.962048 -0.000114
v -2.330578 0.737990 -0.542853
v -1.530962 -0.237021 -1.206090
v 0.000064 -0.531213 -1.307743
v 0.000000 0.145320 0.000000
v -1.546843 -0.137208 -0.000075
v -2.330574 0.145320 -0.630671
v -2.330605 0.145320 -0.000114
v -1.181334 -1.060035 -0.994641
v -0.434473 -1.041172 -1.462169
v -1.077849 0.635911 -1.128058
v -0.208425 0.622411 -1.231814
v -1.290623 -0.081805 -1.371122
v -0.207557 -0.291421 -1.426164
v -1.343538 1.642979 -0.000066
v -1.300367 1.399559 -1.054802
v -2.417263 1.516946 -0.000118
v -2.417228 1.292889 -0.729350
v -1.349603 0.470289 -1.132593
v -2.466464 0.529119 -0.795198
v -1.436241 0.872433 -1.558006
v -2.553102 0.931262 -1.220611
v -1.421299 0.245284 -1.330689
v -2.538160 0.304114 -0.993294
v -1.507936 0.647428 -1.756102
v -2.624798 0.706258 -1.418707
v -2.812059 0.784315 -0.000137
v -2.721698 0.579277 -0.450448
v -3.115095 1.257170 -0.000152
v -3.024724 1.052132 -0.636956
v -3.003256 0.666409 -1.128209
v -2.761832 0.333343 -0.702788
v -2.978144 0.431593 -1.326301
v -2.736720 0.098526 -0.900880
v -1.382066 1.456816 -1.131514
v -2.392706 1.360291 -0.837014
v -1.505017 0.979823 -1.586860
v -2.515658 1.033058 -1.281553
v -2.221488 2.246629 -2.056439
v -1.233904 0.842036 -1.008566
v 0.000055 0.816865 -1.133738
v -1.155660 -0.471095 -1.367049
v -0.423286 -0.684732 -1.409927
v -1.645678 -1.264010 -0.820538
v 0.000068 -1.222347 -1.397139
v 0.000071 -0.533837 -1.448003
v -1.551148 -0.239645 -1.346351
v -1.092474 0.635008 -1.196917
v -0.223050 0.621508 -1.300673
v -1.305248 -0.082709 -1.439981
v -0.222181 -0.292324 -1.495023
v -1.195958 -1.060938 -1.063500
v -0.449097 -1.042075 -1.531028
v -0.437910 -0.685635 -1.478786
v -1.170284 -0.471998 -1.435908
v -1.230346 -0.943216 -1.910769
v -0.973372 0.676892 -2.178861
vn 0.9541 -0.2031 0.2200
vn 0.3220 0.0122 0.9467
vn -0.0343 -0.9991 -0.0267
vn 0.9773 0.1608 -0.1376
vn -0.0625 0.9805 0.1861
vn 1.0000 -0.0000 0.0000
vn 0.5325 0.5828 0.6138
vn 0.7869 -0.5883 0.1863
vn 0.6238 -0.2870 0.7270
vn 0.3716 0.2942 0.8805
vn -0.0313 -0.9994 -0.0164
vn 0.9558 0.2156 -0.2002
vn 0.1872 -0.9809 -0.0526
vn 0.9615 0.2402 -0.1339
vn -0.0185 0.9996 0.0200
vn 0.1394 0.9571 0.2542
vn -0.2164 -0.7019 -0.6786
vn -0.9879 0.1551 -0.0051
vn -0.9615 -0.0731 0.2649
vn -0.3665 -0.8415 -0.3970
vn -0.7591 0.3364 0.5573
vn -0.9511 -0.0246 0.3079
vn 0.2326 -0.7300 0.6427
vn 0.1785 0.6816 0.7096
vn -0.1785 -0.6816 -0.7096
vn 0.8457 -0.5303 -0.0594
vn 0.8798 -0.3511 -0.3204
vn 0.9094 -0.3208 -0.2649
vn -0.3325 -0.6464 0.6868
vn 0.4419 0.7380 0.5099
vn -0.6414 -0.5370 -0.5479
vn 0.3599 0.8830 0.3012
vn -0.5013 -0.7225 -0.4762
vn 0.9597 0.2736 -0.0641
vn 0.2832 -0.4138 0.8652
vn -0.0779 0.8369 -0.5417
vn 0.9378 0.3472 -0.0038
vn -0.0968 0.7986 -0.5940
vn -0.8169 0.2739 0.5075
vn 0.2780 -0.4682 0.8388
vn 0.0859 0.4842 0.8707
vn 0.2663 0.3663 0.8916
vn -0.1999 0.2148 0.9560
vn 0.0593 0.0005 0.9982
vn 0.3415 -0.4766 0.8101
vn -0.0314 0.0010 0.9995
vn 0.2098 -0.4636 0.8608
vn 0.0720 -0.0401 0.9966
vn -0.0048 0.2080 0.9781
vn 0.0975 -0.1363 0.9859
vn 0.9644 0.1701 -0.2026
vn -0.0295 -0.9995 -0.0068
vn -0.9771 0.0452 0.2081
vn -0.2755 0.9587 0.0711
vn -0.0136 0.9998 0.0160
vn -0.9782 -0.0003 0.2077
vn 0.1130 0.1476 0.9826
vn 0.0982 0.4591 0.8829
vn 0.0115 0.1980 0.9801
vn 0.1596 0.3588 0.9197
vn 0.3802 -0.4824 0.7891
vn 0.4824 -0.3862 0.7862
vn -0.0000 0.0000 1.0000
vn 0.9542 -0.2031 -0.2199
vn 0.3221 0.0122 -0.9466
vn -0.0343 -0.9991 0.0267
vn 0.9773 0.1608 0.1377
vn -0.0624 0.9805 -0.1861
vn 0.5326 0.5828 -0.6138
vn 0.7869 -0.5883 -0.1862
vn 0.6239 -0.2870 -0.7269
vn 0.3717 0.2942 -0.8805
vn -0.0313 -0.9994 0.0164
vn 0.9557 0.2156 0.2003
vn 0.1872 -0.9809 0.0526
vn 0.9614 0.2402 0.1340
vn -0.0185 0.9996 -0.0200
vn 0.1394 0.9571 -0.2542
vn -0.2165 -0.7019 0.6786
vn -0.9879 0.1551 0.0050
vn -0.9615 -0.0731 -0.2650
vn -0.3665 -0.8415 0.3969
vn -0.7590 0.3364 -0.5574
vn -0.9511 -0.0246 -0.3079
vn 0.2327 -0.7300 -0.6427
vn 0.1785 0.6816 -0.7096
vn -0.1785 -0.6816 0.7096
vn 0.8457 -0.5303 0.0595
vn 0.8798 -0.3511 0.3204
vn 0.9093 -0.3208 0.2650
vn -0.3324 -0.6464 -0.6868
vn 0.4420 0.7380 -0.5099
vn -0.6415 -0.5370 0.5478
vn 0.3599 0.8830 -0.3012
vn -0.5013 -0.7225 0.4762
vn 0.9597 0.2736 0.0642
vn 0.2833 -0.4138 -0.8652
vn -0.0780 0.8369 0.5417
vn 0.9378 0.3472 0.0039
vn -0.0969 0.7986 0.5940
vn -0.8169 0.2739 -0.5076
vn 0.2781 -0.4682 -0.8387
vn 0.0860 0.4842 -0.8707
vn 0.2664 0.3663 -0.8916
vn -0.1998 0.2148 -0.9560
vn 0.0594 0.0005 -0.9982
vn 0.3416 -0.4766 -0.8101
vn -0.0313 0.0010 -0.9995
vn 0.2099 -0.4636 -0.8608
vn 0.0721 -0.0401 -0.9966
vn -0.7573 0.1365 -0.6386
vn -0.1600 0.6905 -0.7054
vn 0.9644 0.1701 0.2027
vn -0.0295 -0.9995 0.0068
vn -0.9770 0.0452 -0.2082
vn -0.2755 0.9587 -0.0711
vn -0.0136 0.9998 -0.0160
vn -0.9782 -0.0003 -0.2078
vn -0.4460 0.1161 -0.8875
vn -0.0209 0.9988 0.0451
vn 0.1636 -0.6502 -0.7419
vn 0.9440 0.3141 -0.1010
vn 0.9958 0.0756 0.0510
vn 0.0595 -0.9891 -0.1350
vn -0.9542 -0.2031 0.2199
vn -0.3221 0.0122 0.9466
vn 0.0343 -0.9991 -0.0267
vn -0.9773 0.1608 -0.1377
vn 0.0624 0.9805 0.1861
vn -1.0000 0.0000 -0.0000
vn -0.5326 0.5828 0.6138
vn -0.7869 -0.5883 0.1862
vn -0.6239 -0.2870 0.7269
vn -0.3717 0.2942 0.8805
vn 0.0313 -0.9994 -0.0164
vn -0.9557 0.2156 -0.2003
vn -0.1872 -0.9809 -0.0526
vn -0.9614 0.2402 -0.1340
vn 0.0185 0.9996 0.0200
vn -0.1394 0.9571 0.2542
vn 0.2165 -0.7019 -0.6786
vn 0.9879 0.1551 -0.0050
vn 0.9615 -0.0731 0.2650
vn 0.3665 -0.8415 -0.3969
vn 0.7590 0.3364 0.5574
vn 0.9511 -0.0246 0.3079
vn -0.2327 -0.7300 0.6427
vn -0.1785 0.6816 0.7096
vn 0.1785 -0.6816 -0.7096
vn -0.8457 -0.5303 -0.0595
vn -0.8798 -0.3511 -0.3204
vn -0.9093 -0.3208 -0.2650
vn 0.3324 -0.6464 0.6868
vn -0.4420 0.7380 0.5099
vn 0.6415 -0.5370 -0.5478
vn -0.3599 0.8830 0.3012
vn 0.5013 -0.7225 -0.4762
vn -0.9597 0.2736 -0.0642
vn -0.2833 -0.4138 0.8652
vn 0.0780 0.8369 -0.5417
vn -0.9378 0.3472 -0.0039
vn 0.0969 0.7986 -0.5940
vn 0.8169 0.2739 0.5076
vn -0.2781 -0.4682 0.8387
vn -0.0860 0.4842 0.8707
vn -0.2664 0.3663 0.8916
vn 0.1998 0.2148 0.9560
vn -0.0594 0.0005 0.9982
vn -0.3416 -0.4766 0.8101
vn 0.0313 0.0010 0.9995
vn -0.2099 -0.4636 0.8608
vn -0.0721 -0.0401 0.9966
vn 0.0047 0.2080 0.9781
vn -0.0976 -0.1363 0.9858
vn -0.9644 0.1701 -0.2027
vn 0.0295 -0.9995 -0.0068
vn 0.9770 0.0452 0.2082
vn 0.2755 0.9587 0.0711
vn 0.0136 0.9998 0.0160
vn 0.9782 -0.0003 0.2078
vn -0.1131 0.1476 0.9826
vn -0.0983 0.4591 0.8829
vn -0.0116 0.1980 0.9801
vn -0.1597 0.3588 0.9197
vn -0.3803 -0.4824 0.7891
vn -0.4825 -0.3862 0.7862
vn -0.9541 -0.2031 -0.2200
vn -0.3220 0.0122 -0.9467
vn 0.0343 -0.9991 0.0267
vn -0.9773 0.1608 0.1376
vn 0.0625 0.9805 -0.1861
vn -0.5325 0.5828 -0.6138
vn -0.7869 -0.5883 -0.1863
vn -0.6238 -0.2870 -0.7270
vn -0.3716 0.2942 -0.8805
vn 0.0313 -0.9994 0.0164
vn -0.9558 0.2156 0.2002
vn -0.1872 -0.9809 0.0526
vn -0.9615 0.2402 0.1339
vn 0.0185 0.9996 -0.0200
vn -0.1394 0.9571 -0.2542
vn 0.2164 -0.7019 0.6786
vn 0.9879 0.1551 0.0051
vn 0.9615 -0.0731 -0.2649
vn 0.3665 -0.8415 0.3970
vn 0.7591 0.3364 -0.5573
vn 0.9511 -0.0246 -0.3079
vn -0.2326 -0.7300 -0.6427
vn -0.1785 0.6816 -0.7096
vn 0.1785 -0.6816 0.7096
vn -0.8457 -0.5303 0.0594
vn -0.8798 -0.3511 0.3204
vn -0.9094 -0.3208 0.2649
vn 0.3325 -0.6464 -0.6868
vn -0.4419 0.7380 -0.5099
vn 0.6414 -0.5370 0.5479
vn -0.3599 0.8830 -0.3012
vn 0.5013 -0.7225 0.4762
vn -0.9597 0.2736 0.0641
vn -0.2832 -0.4138 -0.8652
vn 0.0779 0.8369 0.5417
vn -0.9378 0.3472 0.0038
vn 0.0968 0.7986 0.5940
vn 0.8169 0.2739 -0.5075
vn -0.2780 -0.4682 -0.8388
vn -0.0859 0.4842 -0.8707
vn -0.2663 0.3663 -0.8916
vn 0.1999 0.2148 -0.9560
vn -0.0593 0.0005 -0.9982
vn -0.3415 -0.4766 -0.8101
vn 0.0314 0.0010 -0.9995
vn -0.2098 -0.4636 -0.8608
vn -0.0720 -0.0401 -0.9966
vn 0.7574 0.1365 -0.6385
vn 0.1601 0.6905 -0.7054
vn -0.9644 0.1701 0.2026
vn 0.0295 -0.9995 0.0068
vn 0.9771 0.0452 -0.2081
vn 0.2755 0.9587 -0.0711
vn 0.0136 0.9998 -0.0160
vn 0.9782 -0.0003 -0.2077
vn 0.4460 0.1161 -0.8874
vn 0.0209 0.9988 0.0451
vn -0.1636 -0.6502 -0.7419
vn -0.9440 0.3141 -0.1011
vn -0.9958 0.0756 0.0509
vn -0.0595 -0.9891 -0.1350
usemtl None
s off
f 50//1 51//1 2//1 1//1
f 1//2 2//2 111//2 110//2
f 50//3 1//3 110//3 166//3
f 2//4 6//4 39//4 38//4
f 3//5 54//5 174//5 115//5
f 7//6 63//6 58//6 5//6
f 19//7 23//7 28//7 26//7
f 2//8 51//8 56//8 4//8
f 6//9 2//9 4//9 7//9
f 3//10 6//10 7//10 5//10
f 4//6 56//6 63//6 7//6
f 111//11 2//11 38//11 153//11
f 12//12 10//12 40//12 42//12
f 13//13 12//13 42//13 43//13
f 6//14 3//14 35//14 39//14
f 3//15 115//15 149//15 35//15
f 70//16 14//16 15//16 72//16
f 3//17 5//17 17//17 16//17
f 54//18 3//18 14//18 70//18
f 18//19 16//19 20//19 22//19
f 5//20 58//20 82//20 24//20
f 14//21 18//21 32//21 30//21
f 14//22 3//22 16//22 18//22
f 20//23 21//23 23//23 22//23
f 19//24 18//24 22//24 23//24
f 16//25 17//25 21//25 20//25
f 24//26 82//26 84//26 25//26
f 24//27 25//27 26//27 27//27
f 27//28 26//28 28//28 29//28
f 23//29 21//29 29//29 28//29
f 15//30 19//30 26//30 25//30
f 21//31 17//31 27//31 29//31
f 72//32 15//32 25//32 84//32
f 17//33 5//33 24//33 27//33
f 33//34 31//34 34//34
f 18//35 19//35 33//35 32//35
f 15//36 14//36 30//36 31//36
f 19//37 15//37 31//37 33//37
f 31//38 30//38 34//38
f 30//39 32//39 34//39
f 32//40 33//40 34//40
f 11//41 10//41 35//41 149//41
f 10//42 12//42 39//42 35//42
f 13//43 11//43 149//43 154//43
f 12//44 13//44 154//44 39//44
f 8//45 9//45 153//45 38//45
f 9//46 37//46 154//46 153//46
f 36//47 8//47 38//47 39//47
f 37//48 36//48 39//48 154//48
f 41//49 43//49 49//49
f 47//50 46//50 48//50
f 8//51 36//51 47//51 44//51
f 9//52 8//52 44//52 45//52
f 11//53 13//53 43//53 41//53
f 36//54 37//54 46//54 47//54
f 10//55 11//55 41//55 40//55
f 37//56 9//56 45//56 46//56
f 46//57 45//57 48//57
f 40//58 41//58 49//58
f 43//59 42//59 49//59
f 42//60 40//60 49//60
f 44//61 47//61 48//61
f 45//62 44//62 48//62
f 166//63 50//63 51//63 167//63
f 50//64 52//64 53//64 51//64
f 52//65 170//65 171//65 53//65
f 50//66 166//66 170//66 52//66
f 53//67 98//67 99//67 60//67
f 55//68 177//68 174//68 54//68
f 61//63 54//63 174//63 184//63
f 61//63 63//63 58//63 54//63
f 62//6 59//6 58//6 63//6
f 77//69 86//69 88//69 81//69
f 53//70 57//70 56//70 51//70
f 60//71 62//71 57//71 53//71
f 55//72 59//72 62//72 60//72
f 57//6 62//6 63//6 56//6
f 51//63 56//63 63//63 61//63
f 51//63 61//63 184//63 167//63
f 171//73 224//73 98//73 53//73
f 68//74 102//74 100//74 66//74
f 69//75 103//75 102//75 68//75
f 60//76 99//76 95//76 55//76
f 55//77 95//77 220//77 177//77
f 70//78 72//78 73//78 71//78
f 55//79 74//79 75//79 59//79
f 54//80 70//80 71//80 55//80
f 58//63 72//63 70//63 54//63
f 76//81 80//81 78//81 74//81
f 59//82 83//82 82//82 58//82
f 71//83 90//83 92//83 76//83
f 71//84 76//84 74//84 55//84
f 78//85 80//85 81//85 79//85
f 77//86 81//86 80//86 76//86
f 58//63 82//63 84//63 72//63
f 74//87 78//87 79//87 75//87
f 83//88 85//88 84//88 82//88
f 83//89 87//89 86//89 85//89
f 87//90 89//90 88//90 86//90
f 81//91 88//91 89//91 79//91
f 73//92 85//92 86//92 77//92
f 79//93 89//93 87//93 75//93
f 72//94 84//94 85//94 73//94
f 75//95 87//95 83//95 59//95
f 93//96 94//96 91//96
f 76//97 92//97 93//97 77//97
f 73//98 91//98 90//98 71//98
f 77//99 93//99 91//99 73//99
f 91//100 94//100 90//100
f 90//101 94//101 92//101
f 92//102 94//102 93//102
f 67//103 220//103 95//103 66//103
f 66//104 95//104 99//104 68//104
f 69//105 225//105 220//105 67//105
f 68//106 99//106 225//106 69//106
f 64//107 98//107 224//107 65//107
f 65//108 224//108 225//108 97//108
f 96//109 99//109 98//109 64//109
f 97//110 225//110 99//110 96//110
f 101//111 109//111 103//111
f 107//112 108//112 106//112
f 64//113 104//113 107//113 96//113
f 65//114 105//114 104//114 64//114
f 67//115 101//115 103//115 69//115
f 96//116 107//116 106//116 97//116
f 66//117 100//117 101//117 67//117
f 97//118 106//118 105//118 65//118
f 106//119 108//119 105//119
f 100//120 109//120 101//120
f 103//121 109//121 102//121
f 102//122 109//122 100//122
f 104//123 108//123 107//123
f 105//124 108//124 104//124
f 168//125 112//125 113//125 169//125
f 112//126 110//126 111//126 113//126
f 110//6 166//6 167//6 111//6
f 168//127 166//127 110//127 112//127
f 113//128 152//128 155//128 118//128
f 114//129 115//129 174//129 175//129
f 184//6 174//6 115//6 119//6
f 120//130 117//130 180//130 187//130
f 132//131 139//131 141//131 136//131
f 113//132 116//132 178//132 169//132
f 118//133 120//133 116//133 113//133
f 114//134 117//134 120//134 118//134
f 116//130 120//130 187//130 178//130
f 167//6 184//6 119//6 111//6
f 111//135 153//135 152//135 113//135
f 125//136 158//136 156//136 123//136
f 126//137 159//137 158//137 125//137
f 119//6 154//6 153//6 111//6
f 115//6 149//6 154//6 119//6
f 118//138 155//138 148//138 114//138
f 114//139 148//139 149//139 115//139
f 194//140 196//140 128//140 127//140
f 114//141 129//141 130//141 117//141
f 175//142 194//142 127//142 114//142
f 131//143 135//143 133//143 129//143
f 117//144 137//144 206//144 180//144
f 127//145 143//145 145//145 131//145
f 127//146 131//146 129//146 114//146
f 133//147 135//147 136//147 134//147
f 132//148 136//148 135//148 131//148
f 129//149 133//149 134//149 130//149
f 137//150 138//150 208//150 206//150
f 137//151 140//151 139//151 138//151
f 140//152 142//152 141//152 139//152
f 136//153 141//153 142//153 134//153
f 128//154 138//154 139//154 132//154
f 134//155 142//155 140//155 130//155
f 196//156 208//156 138//156 128//156
f 130//157 140//157 137//157 117//157
f 146//158 147//158 144//158
f 131//159 145//159 146//159 132//159
f 128//160 144//160 143//160 127//160
f 132//161 146//161 144//161 128//161
f 144//162 147//162 143//162
f 143//163 147//163 145//163
f 145//164 147//164 146//164
f 124//165 149//165 148//165 123//165
f 123//166 148//166 155//166 125//166
f 126//167 154//167 149//167 124//167
f 125//168 155//168 154//168 126//168
f 121//169 152//169 153//169 122//169
f 122//170 153//170 154//170 151//170
f 150//171 155//171 152//171 121//171
f 151//172 154//172 155//172 150//172
f 157//173 165//173 159//173
f 163//174 164//174 162//174
f 121//175 160//175 163//175 150//175
f 122//176 161//176 160//176 121//176
f 124//177 157//177 159//177 126//177
f 150//178 163//178 162//178 151//178
f 123//179 156//179 157//179 124//179
f 151//180 162//180 161//180 122//180
f 162//181 164//181 161//181
f 156//182 165//182 157//182
f 159//183 165//183 158//183
f 158//184 165//184 156//184
f 160//185 164//185 163//185
f 161//186 164//186 160//186
f 166//63 167//63 169//63 168//63
f 168//187 169//187 173//187 172//187
f 172//188 173//188 171//188 170//188
f 170//6 171//6 167//6 166//6
f 168//189 172//189 170//189 166//189
f 173//190 182//190 226//190 223//190
f 176//191 175//191 174//191 177//191
f 185//63 184//63 174//63 175//63
f 184//6 183//6 177//6 174//6
f 185//63 175//63 180//63 187//63
f 186//130 187//130 180//130 181//130
f 201//192 205//192 212//192 210//192
f 173//193 169//193 178//193 179//193
f 182//194 173//194 179//194 186//194
f 176//195 182//195 186//195 181//195
f 179//130 178//130 187//130 186//130
f 169//63 185//63 187//63 178//63
f 167//6 171//6 183//6 184//6
f 169//63 167//63 184//63 185//63
f 171//196 173//196 223//196 224//196
f 192//197 190//197 227//197 229//197
f 193//198 192//198 229//198 230//198
f 183//6 171//6 224//6 225//6
f 177//6 183//6 225//6 220//6
f 182//199 176//199 219//199 226//199
f 176//200 177//200 220//200 219//200
f 194//201 195//201 197//201 196//201
f 176//202 181//202 199//202 198//202
f 175//203 176//203 195//203 194//203
f 180//63 175//63 194//63 196//63
f 200//204 198//204 202//204 204//204
f 181//205 180//205 206//205 207//205
f 195//206 200//206 216//206 214//206
f 195//207 176//207 198//207 200//207
f 202//208 203//208 205//208 204//208
f 201//209 200//209 204//209 205//209
f 180//63 196//63 208//63 206//63
f 198//210 199//210 203//210 202//210
f 207//211 206//211 208//211 209//211
f 207//212 209//212 210//212 211//212
f 211//213 210//213 212//213 213//213
f 205//214 203//214 213//214 212//214
f 197//215 201//215 210//215 209//215
f 203//216 199//216 211//216 213//216
f 196//217 197//217 209//217 208//217
f 199//218 181//218 207//218 211//218
f 217//219 215//219 218//219
f 200//220 201//220 217//220 216//220
f 197//221 195//221 214//221 215//221
f 201//222 197//222 215//222 217//222
f 215//223 214//223 218//223
f 214//224 216//224 218//224
f 216//225 217//225 218//225
f 191//226 190//226 219//226 220//226
f 190//227 192//227 226//227 219//227
f 193//228 191//228 220//228 225//228
f 192//229 193//229 225//229 226//229
f 188//230 189//230 224//230 223//230
f 189//231 222//231 225//231 224//231
f 221//232 188//232 223//232 226//232
f 222//233 221//233 226//233 225//233
f 228//234 230//234 236//234
f 234//235 233//235 235//235
f 188//236 221//236 234//236 231//236
f 189//237 188//237 231//237 232//237
f 191//238 193//238 230//238 228//238
f 221//239 222//239 233//239 234//239
f 190//240 191//240 228//240 227//240
f 222//241 189//241 232//241 233//241
f 233//242 232//242 235//242
f 227//243 228//243 236//243
f 230//244 229//244 236//244
f 229//245 227//245 236//245
f 231//246 234//246 235//246
f 232//247 231//247 235//247
