# Blender v2.78 (sub 0) OBJ File: 'legging.blend'
# www.blender.org
mtllib legging.mtl
o Cylinder_Cylinder.001
v -0.503076 -3.466285 -0.375360
v -0.503076 0.284481 -0.375360
v -0.441294 -3.466285 -0.370241
v -0.441294 0.284481 -0.370241
v -0.381197 -3.466285 -0.355022
v -0.381197 0.284481 -0.355022
v -0.324424 -3.466285 -0.330119
v -0.324424 0.284481 -0.330119
v -0.272525 -3.466285 -0.296212
v -0.272525 0.284481 -0.296212
v -0.226915 -3.466285 -0.254224
v -0.226915 0.284481 -0.254224
v -0.188837 -3.466285 -0.205303
v -0.188837 0.284481 -0.205303
v -0.159331 -3.466285 -0.150780
v -0.159331 0.284481 -0.150780
v -0.139202 -3.466285 -0.092145
v -0.139202 0.284481 -0.092145
v -0.128998 -3.466285 -0.030997
v -0.128998 0.284481 -0.030997
v -0.128998 -3.466285 0.030997
v -0.128998 0.284481 0.030997
v -0.139202 -3.466285 0.092145
v -0.139202 0.284481 0.092145
v -0.159331 -3.466285 0.150780
v -0.159331 0.284481 0.150780
v -0.188837 -3.466285 0.205303
v -0.188837 0.284481 0.205303
v -0.226915 -3.466285 0.254225
v -0.226915 0.284481 0.254225
v -0.272525 -3.466285 0.296212
v -0.272525 0.284481 0.296212
v -0.324424 -3.466285 0.330119
v -0.324424 0.284481 0.330119
v -0.381197 -3.466285 0.355022
v -0.381197 0.284481 0.355022
v -0.441294 -3.466285 0.370241
v -0.441294 0.284481 0.370241
v -0.503076 -3.466285 0.375360
v -0.503076 0.284481 0.375360
v -0.564858 -3.466285 0.370241
v -0.564858 0.284481 0.370241
v -0.624955 -3.466285 0.355022
v -0.624955 0.284481 0.355022
v -0.681728 -3.466285 0.330119
v -0.681728 0.284481 0.330119
v -0.733627 -3.466285 0.296212
v -0.733627 0.284481 0.296212
v -0.779238 -3.466285 0.254224
v -0.779238 0.284481 0.254224
v -0.817315 -3.466285 0.205302
v -0.817315 0.284481 0.205302
v -0.846821 -3.466285 0.150780
v -0.846821 0.284481 0.150780
v -0.866950 -3.466285 0.092145
v -0.866950 0.284481 0.092145
v -0.877154 -3.466285 0.030996
v -0.877154 0.284481 0.030996
v -0.877154 -3.466285 -0.030998
v -0.877154 0.284481 -0.030998
v -0.866950 -3.466285 -0.092146
v -0.866950 0.284481 -0.092146
v -0.846820 -3.466285 -0.150781
v -0.846820 0.284481 -0.150781
v -0.817314 -3.466285 -0.205303
v -0.817314 0.284481 -0.205303
v -0.779237 -3.466285 -0.254225
v -0.779237 0.284481 -0.254225
v -0.733626 -3.466285 -0.296212
v -0.733626 0.284481 -0.296212
v -0.681727 -3.466285 -0.330120
v -0.681727 0.284481 -0.330120
v -0.624954 -3.466285 -0.355022
v -0.624954 0.284481 -0.355022
v -0.564857 -3.466285 -0.370241
v -0.564857 0.284481 -0.370241
v 0.490588 -1.095809 0.152935
v 0.614253 -1.145330 0.029269
v 0.713426 -1.284086 -0.069903
v 0.768462 -1.484594 -0.124940
v 0.768462 -1.707142 -0.124940
v 0.713426 -1.907650 -0.069903
v 0.614253 -2.046406 0.029269
v 0.665478 -1.145330 0.152935
v 0.805728 -1.284086 0.152935
v 0.883562 -1.484594 0.152935
v 0.883562 -1.707142 0.152935
v 0.805728 -1.907650 0.152935
v 0.665478 -2.046406 0.152935
v 0.614253 -1.145330 0.276601
v 0.713426 -1.284086 0.375773
v 0.768462 -1.484594 0.430810
v 0.768462 -1.707142 0.430810
v 0.713426 -1.907650 0.375773
v 0.614253 -2.046406 0.276601
v 0.490588 -1.145330 0.327825
v 0.490588 -1.284086 0.468076
v 0.490588 -1.484594 0.545909
v 0.490588 -1.707142 0.545909
v 0.490588 -1.907650 0.468076
v 0.490588 -2.046406 0.327825
v 0.912013 0.498418 -0.503184
v 0.912013 -0.493085 -0.503184
v 0.366922 -1.145330 0.276601
v 0.267749 -1.284086 0.375773
v 0.212713 -1.484594 0.430810
v 0.212713 -1.707142 0.430810
v 0.267749 -1.907650 0.375773
v 0.366922 -2.046406 0.276601
v 0.912013 0.498418 0.488319
v 0.912013 -0.493085 0.488319
v 0.315698 -1.145330 0.152935
v 0.175447 -1.284086 0.152935
v 0.097614 -1.484594 0.152935
v 0.097614 -1.707142 0.152935
v 0.175447 -1.907650 0.152935
v 0.315698 -2.046406 0.152935
v 0.490588 -2.095927 0.152935
v 0.366922 -1.145330 0.029269
v 0.267749 -1.284086 -0.069903
v 0.212713 -1.484594 -0.124940
v 0.212713 -1.707142 -0.124940
v 0.267749 -1.907650 -0.069903
v 0.366922 -2.046406 0.029269
v 0.490588 -1.145330 -0.021955
v 0.490588 -1.284086 -0.162206
v 0.490588 -1.484594 -0.240039
v 0.490588 -1.707142 -0.240039
v 0.490588 -1.907650 -0.162206
v 0.490588 -2.046406 -0.021955
v 0.503076 -3.466285 -0.375360
v 0.503076 0.284481 -0.375360
v 0.441294 -3.466285 -0.370241
v 0.441294 0.284481 -0.370241
v 0.381197 -3.466285 -0.355022
v 0.381197 0.284481 -0.355022
v 0.324424 -3.466285 -0.330119
v 0.324424 0.284481 -0.330119
v 0.272525 -3.466285 -0.296212
v 0.272525 0.284481 -0.296212
v 0.226915 -3.466285 -0.254224
v 0.226915 0.284481 -0.254224
v 0.188837 -3.466285 -0.205303
v 0.188837 0.284481 -0.205303
v 0.159331 -3.466285 -0.150780
v 0.159331 0.284481 -0.150780
v 0.139202 -3.466285 -0.092145
v 0.139202 0.284481 -0.092145
v 0.128998 -3.466285 -0.030997
v 0.128998 0.284481 -0.030997
v 0.128998 -3.466285 0.030997
v 0.128998 0.284481 0.030997
v 0.139202 -3.466285 0.092145
v 0.139202 0.284481 0.092145
v 0.159331 -3.466285 0.150780
v 0.159331 0.284481 0.150780
v 0.188837 -3.466285 0.205303
v 0.188837 0.284481 0.205303
v 0.226915 -3.466285 0.254225
v 0.226915 0.284481 0.254225
v 0.272525 -3.466285 0.296212
v 0.272525 0.284481 0.296212
v 0.324424 -3.466285 0.330119
v 0.324424 0.284481 0.330119
v 0.381197 -3.466285 0.355022
v 0.381197 0.284481 0.355022
v 0.441294 -3.466285 0.370241
v 0.441294 0.284481 0.370241
v 0.503076 -3.466285 0.375360
v 0.503076 0.284481 0.375360
v 0.564858 -3.466285 0.370241
v 0.564858 0.284481 0.370241
v 0.624955 -3.466285 0.355022
v 0.624955 0.284481 0.355022
v 0.681728 -3.466285 0.330119
v 0.681728 0.284481 0.330119
v 0.733627 -3.466285 0.296212
v 0.733627 0.284481 0.296212
v 0.779238 -3.466285 0.254224
v 0.779238 0.284481 0.254224
v 0.817315 -3.466285 0.205302
v 0.817315 0.284481 0.205302
v 0.846821 -3.466285 0.150780
v 0.846821 0.284481 0.150780
v 0.866950 -3.466285 0.092145
v 0.866950 0.284481 0.092145
v 0.877154 -3.466285 0.030996
v 0.877154 0.284481 0.030996
v 0.877154 -3.466285 -0.030998
v 0.877154 0.284481 -0.030998
v 0.866950 -3.466285 -0.092146
v 0.866950 0.284481 -0.092146
v 0.846820 -3.466285 -0.150781
v 0.846820 0.284481 -0.150781
v 0.817314 -3.466285 -0.205303
v 0.817314 0.284481 -0.205303
v 0.779237 -3.466285 -0.254225
v 0.779237 0.284481 -0.254225
v 0.733626 -3.466285 -0.296212
v 0.733626 0.284481 -0.296212
v 0.681727 -3.466285 -0.330120
v 0.681727 0.284481 -0.330120
v 0.624954 -3.466285 -0.355022
v 0.624954 0.284481 -0.355022
v 0.564857 -3.466285 -0.370241
v 0.564857 0.284481 -0.370241
v -0.490588 -1.095809 0.152935
v -0.614253 -1.145330 0.029269
v -0.713426 -1.284086 -0.069903
v -0.768462 -1.484594 -0.124940
v -0.768462 -1.707142 -0.124940
v -0.713426 -1.907650 -0.069903
v -0.614253 -2.046406 0.029269
v -0.665478 -1.145330 0.152935
v -0.805728 -1.284086 0.152935
v -0.883562 -1.484594 0.152935
v -0.883562 -1.707142 0.152935
v -0.805728 -1.907650 0.152935
v -0.665478 -2.046406 0.152935
v -0.614253 -1.145330 0.276601
v -0.713426 -1.284086 0.375773
v -0.768462 -1.484594 0.430810
v -0.768462 -1.707142 0.430810
v -0.713426 -1.907650 0.375773
v -0.614253 -2.046406 0.276601
v -0.490588 -1.145330 0.327825
v -0.490588 -1.284086 0.468076
v -0.490588 -1.484594 0.545909
v -0.490588 -1.707142 0.545909
v -0.490588 -1.907650 0.468076
v -0.490588 -2.046406 0.327825
v -0.912013 0.498418 -0.503184
v -0.912013 -0.493085 -0.503184
v -0.366922 -1.145330 0.276601
v -0.267749 -1.284086 0.375773
v -0.212713 -1.484594 0.430810
v -0.212713 -1.707142 0.430810
v -0.267749 -1.907650 0.375773
v -0.366922 -2.046406 0.276601
v -0.912013 0.498418 0.488319
v -0.912013 -0.493085 0.488319
v -0.315698 -1.145330 0.152935
v -0.175447 -1.284086 0.152935
v -0.097614 -1.484594 0.152935
v -0.097614 -1.707142 0.152935
v -0.175447 -1.907650 0.152935
v -0.315698 -2.046406 0.152935
v -0.490588 -2.095927 0.152935
v 0.000000 0.498418 -0.503184
v -0.366922 -1.145330 0.029269
v -0.267749 -1.284086 -0.069903
v -0.212713 -1.484594 -0.124940
v -0.212713 -1.707142 -0.124940
v -0.267749 -1.907650 -0.069903
v -0.366922 -2.046406 0.029269
v 0.000000 -0.493085 -0.503184
v 0.000000 0.498418 0.488319
v -0.490588 -1.145330 -0.021955
v -0.490588 -1.284086 -0.162206
v -0.490588 -1.484594 -0.240039
v -0.490588 -1.707142 -0.240039
v -0.490588 -1.907650 -0.162206
v -0.490588 -2.046406 -0.021955
v 0.000000 -0.493085 0.488319
vn 0.0826 0.0000 -0.9966
vn 0.2455 0.0000 -0.9694
vn 0.4017 0.0000 -0.9158
vn 0.5469 0.0000 -0.8372
vn 0.6773 0.0000 -0.7357
vn 0.7891 0.0000 -0.6142
vn 0.8795 0.0000 -0.4759
vn 0.9458 0.0000 -0.3247
vn 0.9864 0.0000 -0.1646
vn 1.0000 0.0000 0.0000
vn 0.9864 0.0000 0.1646
vn 0.9458 0.0000 0.3247
vn 0.8795 0.0000 0.4759
vn 0.7891 0.0000 0.6142
vn 0.6773 0.0000 0.7357
vn 0.5469 0.0000 0.8372
vn 0.4017 0.0000 0.9158
vn 0.2455 0.0000 0.9694
vn 0.0826 0.0000 0.9966
vn -0.0826 0.0000 0.9966
vn -0.2455 0.0000 0.9694
vn -0.4017 0.0000 0.9158
vn -0.5469 0.0000 0.8372
vn -0.6773 0.0000 0.7357
vn -0.7891 0.0000 0.6142
vn -0.8795 0.0000 0.4759
vn -0.9458 0.0000 0.3247
vn -0.9864 0.0000 0.1646
vn -1.0000 0.0000 -0.0000
vn -0.9864 0.0000 -0.1646
vn -0.9458 0.0000 -0.3247
vn -0.8795 0.0000 -0.4759
vn -0.7891 0.0000 -0.6142
vn -0.6773 0.0000 -0.7357
vn -0.5469 0.0000 -0.8372
vn -0.4017 0.0000 -0.9158
vn 0.0000 1.0000 0.0000
vn -0.2455 0.0000 -0.9694
vn -0.0826 0.0000 -0.9966
vn 0.0000 -1.0000 0.0000
vn 0.2797 0.6825 -0.6752
vn 0.1121 -0.9561 -0.2707
vn 0.3602 -0.3376 -0.8696
vn 0.3602 0.3376 -0.8696
vn 0.1121 0.9561 -0.2707
vn 0.2797 -0.6825 -0.6752
vn 0.3827 0.0000 -0.9239
vn 0.6752 -0.6825 -0.2797
vn 0.9239 0.0000 -0.3827
vn 0.6752 0.6825 -0.2797
vn 0.2707 -0.9561 -0.1121
vn 0.8696 -0.3376 -0.3602
vn 0.8696 0.3376 -0.3602
vn 0.2707 0.9561 -0.1121
vn 0.6752 0.6825 0.2797
vn 0.2707 -0.9561 0.1121
vn 0.8696 -0.3376 0.3602
vn 0.8696 0.3376 0.3602
vn 0.2707 0.9561 0.1121
vn 0.6752 -0.6825 0.2797
vn 0.9239 0.0000 0.3827
vn 0.1121 -0.9561 0.2707
vn 0.3602 -0.3376 0.8696
vn 0.3602 0.3376 0.8696
vn 0.1121 0.9561 0.2707
vn 0.2797 -0.6825 0.6752
vn 0.3827 0.0000 0.9239
vn 0.2797 0.6825 0.6752
vn -0.3602 -0.3376 0.8696
vn -0.3602 0.3376 0.8696
vn -0.1121 0.9561 0.2707
vn -0.2797 -0.6825 0.6752
vn -0.3827 0.0000 0.9239
vn -0.2797 0.6825 0.6752
vn -0.1121 -0.9561 0.2707
vn -0.2707 0.9561 0.1121
vn -0.6752 -0.6825 0.2797
vn -0.9239 0.0000 0.3827
vn -0.6752 0.6825 0.2797
vn -0.2707 -0.9561 0.1121
vn -0.8696 -0.3376 0.3602
vn -0.8696 0.3376 0.3602
vn -0.6752 -0.6825 -0.2797
vn -0.9239 0.0000 -0.3827
vn -0.6752 0.6825 -0.2797
vn -0.2707 -0.9561 -0.1121
vn -0.8696 -0.3376 -0.3602
vn -0.8696 0.3376 -0.3602
vn -0.2707 0.9561 -0.1121
vn -0.3827 0.0000 -0.9239
vn -0.2797 0.6825 -0.6752
vn -0.1121 -0.9561 -0.2707
vn -0.3602 -0.3376 -0.8696
vn -0.3602 0.3376 -0.8696
vn -0.1121 0.9561 -0.2707
vn -0.2797 -0.6825 -0.6752
vn 0.0000 0.0000 -1.0000
vn 0.0000 0.0000 1.0000
usemtl None
s off
f 1//1 2//1 4//1 3//1
f 3//2 4//2 6//2 5//2
f 5//3 6//3 8//3 7//3
f 7//4 8//4 10//4 9//4
f 9//5 10//5 12//5 11//5
f 11//6 12//6 14//6 13//6
f 13//7 14//7 16//7 15//7
f 15//8 16//8 18//8 17//8
f 17//9 18//9 20//9 19//9
f 19//10 20//10 22//10 21//10
f 21//11 22//11 24//11 23//11
f 23//12 24//12 26//12 25//12
f 25//13 26//13 28//13 27//13
f 27//14 28//14 30//14 29//14
f 29//15 30//15 32//15 31//15
f 31//16 32//16 34//16 33//16
f 33//17 34//17 36//17 35//17
f 35//18 36//18 38//18 37//18
f 37//19 38//19 40//19 39//19
f 39//20 40//20 42//20 41//20
f 41//21 42//21 44//21 43//21
f 43//22 44//22 46//22 45//22
f 45//23 46//23 48//23 47//23
f 47//24 48//24 50//24 49//24
f 49//25 50//25 52//25 51//25
f 51//26 52//26 54//26 53//26
f 53//27 54//27 56//27 55//27
f 55//28 56//28 58//28 57//28
f 57//29 58//29 60//29 59//29
f 59//30 60//30 62//30 61//30
f 61//31 62//31 64//31 63//31
f 63//32 64//32 66//32 65//32
f 65//33 66//33 68//33 67//33
f 67//34 68//34 70//34 69//34
f 69//35 70//35 72//35 71//35
f 71//36 72//36 74//36 73//36
f 4//37 2//37 76//37 74//37 72//37 70//37 68//37 66//37 64//37 62//37 60//37 58//37 56//37 54//37 52//37 50//37 48//37 46//37 44//37 42//37 40//37 38//37 36//37 34//37 32//37 30//37 28//37 26//37 24//37 22//37 20//37 18//37 16//37 14//37 12//37 10//37 8//37 6//37
f 73//38 74//38 76//38 75//38
f 75//39 76//39 2//39 1//39
f 1//40 3//40 5//40 7//40 9//40 11//40 13//40 15//40 17//40 19//40 21//40 23//40 25//40 27//40 29//40 31//40 33//40 35//40 37//40 39//40 41//40 43//40 45//40 47//40 49//40 51//40 53//40 55//40 57//40 59//40 61//40 63//40 65//40 67//40 69//40 71//40 73//40 75//40
f 126//41 125//41 78//41 79//41
f 118//42 130//42 83//42
f 129//43 128//43 81//43 82//43
f 127//44 126//44 79//44 80//44
f 125//45 77//45 78//45
f 130//46 129//46 82//46 83//46
f 128//47 127//47 80//47 81//47
f 83//48 82//48 88//48 89//48
f 81//49 80//49 86//49 87//49
f 79//50 78//50 84//50 85//50
f 118//51 83//51 89//51
f 82//52 81//52 87//52 88//52
f 80//53 79//53 85//53 86//53
f 78//54 77//54 84//54
f 85//55 84//55 90//55 91//55
f 118//56 89//56 95//56
f 88//57 87//57 93//57 94//57
f 86//58 85//58 91//58 92//58
f 84//59 77//59 90//59
f 89//60 88//60 94//60 95//60
f 87//61 86//61 92//61 93//61
f 118//62 95//62 101//62
f 94//63 93//63 99//63 100//63
f 92//64 91//64 97//64 98//64
f 90//65 77//65 96//65
f 95//66 94//66 100//66 101//66
f 93//67 92//67 98//67 99//67
f 91//68 90//68 96//68 97//68
f 100//69 99//69 107//69 108//69
f 98//70 97//70 105//70 106//70
f 96//71 77//71 104//71
f 101//72 100//72 108//72 109//72
f 99//73 98//73 106//73 107//73
f 97//74 96//74 104//74 105//74
f 118//75 101//75 109//75
f 104//76 77//76 112//76
f 109//77 108//77 116//77 117//77
f 107//78 106//78 114//78 115//78
f 105//79 104//79 112//79 113//79
f 118//80 109//80 117//80
f 108//81 107//81 115//81 116//81
f 106//82 105//82 113//82 114//82
f 117//83 116//83 123//83 124//83
f 115//84 114//84 121//84 122//84
f 113//85 112//85 119//85 120//85
f 118//86 117//86 124//86
f 116//87 115//87 122//87 123//87
f 114//88 113//88 120//88 121//88
f 112//89 77//89 119//89
f 122//90 121//90 127//90 128//90
f 120//91 119//91 125//91 126//91
f 118//92 124//92 130//92
f 123//93 122//93 128//93 129//93
f 121//94 120//94 126//94 127//94
f 119//95 77//95 125//95
f 124//96 123//96 129//96 130//96
f 256//97 249//97 102//97 103//97
f 103//10 102//10 110//10 111//10
f 111//98 110//98 257//98 264//98
f 256//40 103//40 111//40 264//40
f 102//37 249//37 257//37 110//37
f 131//39 133//39 134//39 132//39
f 133//38 135//38 136//38 134//38
f 135//36 137//36 138//36 136//36
f 137//35 139//35 140//35 138//35
f 139//34 141//34 142//34 140//34
f 141//33 143//33 144//33 142//33
f 143//32 145//32 146//32 144//32
f 145//31 147//31 148//31 146//31
f 147//30 149//30 150//30 148//30
f 149//29 151//29 152//29 150//29
f 151//28 153//28 154//28 152//28
f 153//27 155//27 156//27 154//27
f 155//26 157//26 158//26 156//26
f 157//25 159//25 160//25 158//25
f 159//24 161//24 162//24 160//24
f 161//23 163//23 164//23 162//23
f 163//22 165//22 166//22 164//22
f 165//21 167//21 168//21 166//21
f 167//20 169//20 170//20 168//20
f 169//19 171//19 172//19 170//19
f 171//18 173//18 174//18 172//18
f 173//17 175//17 176//17 174//17
f 175//16 177//16 178//16 176//16
f 177//15 179//15 180//15 178//15
f 179//14 181//14 182//14 180//14
f 181//13 183//13 184//13 182//13
f 183//12 185//12 186//12 184//12
f 185//11 187//11 188//11 186//11
f 187//10 189//10 190//10 188//10
f 189//9 191//9 192//9 190//9
f 191//8 193//8 194//8 192//8
f 193//7 195//7 196//7 194//7
f 195//6 197//6 198//6 196//6
f 197//5 199//5 200//5 198//5
f 199//4 201//4 202//4 200//4
f 201//3 203//3 204//3 202//3
f 134//37 136//37 138//37 140//37 142//37 144//37 146//37 148//37 150//37 152//37 154//37 156//37 158//37 160//37 162//37 164//37 166//37 168//37 170//37 172//37 174//37 176//37 178//37 180//37 182//37 184//37 186//37 188//37 190//37 192//37 194//37 196//37 198//37 200//37 202//37 204//37 206//37 132//37
f 203//2 205//2 206//2 204//2
f 205//1 131//1 132//1 206//1
f 131//40 205//40 203//40 201//40 199//40 197//40 195//40 193//40 191//40 189//40 187//40 185//40 183//40 181//40 179//40 177//40 175//40 173//40 171//40 169//40 167//40 165//40 163//40 161//40 159//40 157//40 155//40 153//40 151//40 149//40 147//40 145//40 143//40 141//40 139//40 137//40 135//40 133//40
f 259//91 209//91 208//91 258//91
f 248//92 213//92 263//92
f 262//93 212//93 211//93 261//93
f 260//94 210//94 209//94 259//94
f 258//95 208//95 207//95
f 263//96 213//96 212//96 262//96
f 261//90 211//90 210//90 260//90
f 213//83 219//83 218//83 212//83
f 211//84 217//84 216//84 210//84
f 209//85 215//85 214//85 208//85
f 248//86 219//86 213//86
f 212//87 218//87 217//87 211//87
f 210//88 216//88 215//88 209//88
f 208//89 214//89 207//89
f 215//79 221//79 220//79 214//79
f 248//80 225//80 219//80
f 218//81 224//81 223//81 217//81
f 216//82 222//82 221//82 215//82
f 214//76 220//76 207//76
f 219//77 225//77 224//77 218//77
f 217//78 223//78 222//78 216//78
f 248//75 231//75 225//75
f 224//69 230//69 229//69 223//69
f 222//70 228//70 227//70 221//70
f 220//71 226//71 207//71
f 225//72 231//72 230//72 224//72
f 223//73 229//73 228//73 222//73
f 221//74 227//74 226//74 220//74
f 230//63 238//63 237//63 229//63
f 228//64 236//64 235//64 227//64
f 226//65 234//65 207//65
f 231//66 239//66 238//66 230//66
f 229//67 237//67 236//67 228//67
f 227//68 235//68 234//68 226//68
f 248//62 239//62 231//62
f 234//59 242//59 207//59
f 239//60 247//60 246//60 238//60
f 237//61 245//61 244//61 236//61
f 235//55 243//55 242//55 234//55
f 248//56 247//56 239//56
f 238//57 246//57 245//57 237//57
f 236//58 244//58 243//58 235//58
f 247//48 255//48 254//48 246//48
f 245//49 253//49 252//49 244//49
f 243//50 251//50 250//50 242//50
f 248//51 255//51 247//51
f 246//52 254//52 253//52 245//52
f 244//53 252//53 251//53 243//53
f 242//54 250//54 207//54
f 253//47 261//47 260//47 252//47
f 251//41 259//41 258//41 250//41
f 248//42 263//42 255//42
f 254//43 262//43 261//43 253//43
f 252//44 260//44 259//44 251//44
f 250//45 258//45 207//45
f 255//46 263//46 262//46 254//46
f 264//10 256//10 249//10 257//10
f 256//97 233//97 232//97 249//97
f 233//29 241//29 240//29 232//29
f 241//98 264//98 257//98 240//98
f 256//40 264//40 241//40 233//40
f 232//37 240//37 257//37 249//37
