# Blender v2.78 (sub 0) OBJ File: 'shield.blend'
# www.blender.org
mtllib shield.mtl
o Sphere
v 0.475528 0.497136 0.345467
v 0.654509 0.452715 0.475506
v 0.769421 0.307836 0.559002
v 0.809017 0.124908 0.587779
v 0.769421 0.002476 0.559017
v 0.654509 -0.025530 0.475530
v 0.475528 -0.046843 0.345494
v 0.250000 -0.030686 0.181637
v 0.181635 0.497146 0.558993
v 0.250000 0.452730 0.769399
v 0.293893 0.307853 0.904494
v 0.309017 0.124925 0.951051
v 0.293892 0.002493 0.904509
v 0.250000 -0.025515 0.769422
v 0.181635 -0.046833 0.559020
v 0.095491 -0.030680 0.293894
v -0.181636 0.497146 0.558993
v -0.250000 0.452730 0.769399
v -0.293893 0.307853 0.904494
v -0.309017 0.124925 0.951051
v -0.293893 0.002493 0.904509
v -0.250000 -0.025515 0.769422
v -0.181636 -0.046833 0.559020
v -0.095492 -0.030680 0.293894
v -0.475529 0.497135 0.345467
v -0.654509 0.452715 0.475506
v -0.769421 0.307836 0.559002
v -0.809017 0.124907 0.587779
v -0.769421 0.002476 0.559017
v -0.654509 -0.025530 0.475530
v -0.475529 -0.046844 0.345494
v -0.250000 -0.030686 0.181637
v 0.177615 0.580922 0.129017
v 0.337844 0.603088 0.245429
v 0.067843 0.580926 0.208771
v 0.129045 0.603095 0.397131
v -0.067843 0.580926 0.208771
v -0.129045 0.603095 0.397131
v -0.177616 0.580921 0.129017
v -0.337845 0.603087 0.245429
v 0.687366 0.298079 0.499386
v 0.722740 0.134659 0.525095
v 0.262550 0.298094 0.808033
v 0.276062 0.134675 0.849625
v -0.262551 0.298094 0.808033
v -0.276062 0.134675 0.849625
v -0.687367 0.298079 0.499387
v -0.722740 0.134659 0.525095
v 0.153317 -0.219953 0.422836
v 0.077597 -0.115684 0.228522
v -0.149963 -0.221001 0.428171
v -0.081847 -0.116235 0.231327
v 0.587785 0.497119 -0.000024
v 0.809017 0.452692 -0.000022
v 0.951056 0.002449 -0.000000
v 0.809017 -0.025553 0.000001
v 0.475528 0.497102 -0.345516
v 0.654508 0.452669 -0.475551
v 0.769421 0.307782 -0.559032
v 0.809017 0.124850 -0.587792
v 0.769421 0.002422 -0.559017
v 0.654508 -0.025576 -0.475527
v 0.475528 -0.046877 -0.345489
v 0.250000 -0.030703 -0.181634
v 0.181635 0.497092 -0.559042
v 0.250000 0.452655 -0.769443
v 0.293892 0.307765 -0.904524
v 0.309017 0.124832 -0.951063
v 0.293892 0.002405 -0.904509
v 0.250000 -0.025590 -0.769420
v 0.181635 -0.046888 -0.559015
v 0.095491 -0.030709 -0.293891
v -0.181636 0.497091 -0.559042
v -0.250001 0.452654 -0.769443
v -0.293893 0.307765 -0.904524
v -0.309017 0.124832 -0.951063
v -0.293893 0.002405 -0.904509
v -0.250000 -0.025590 -0.769420
v -0.181636 -0.046888 -0.559015
v -0.095492 -0.030709 -0.293891
v -0.475529 0.497102 -0.345516
v -0.654509 0.452669 -0.475551
v -0.769421 0.307782 -0.559032
v -0.809017 0.124850 -0.587792
v -0.769422 0.002421 -0.559017
v -0.654509 -0.025576 -0.475527
v -0.475529 -0.046877 -0.345489
v -0.250000 -0.030703 -0.181634
v -0.587786 0.497119 -0.000024
v -0.809018 0.452692 -0.000022
v -0.951057 0.307809 -0.000015
v -1.000001 0.124879 -0.000006
v -0.951057 0.002449 -0.000000
v -0.809018 -0.025553 0.000001
v -0.587786 -0.046860 0.000002
v -0.309017 -0.030695 0.000002
v -0.000000 -0.002659 0.000000
v 0.951057 0.307809 -0.000015
v 1.000000 0.124879 -0.000006
v 0.587785 -0.046860 0.000002
v 0.309017 -0.030694 0.000001
v 0.219544 0.580915 -0.000028
v 0.417598 0.603076 -0.000029
v 0.177615 0.580909 -0.129074
v 0.337844 0.603064 -0.245488
v 0.067843 0.580905 -0.208828
v 0.129045 0.603056 -0.397189
v -0.067843 0.580905 -0.208828
v -0.129045 0.603056 -0.397189
v -0.177616 0.580909 -0.129073
v -0.337845 0.603064 -0.245488
v -0.219545 0.580915 -0.000028
v -0.417599 0.603075 -0.000029
v -0.000001 0.566883 -0.000028
v 0.687366 0.298031 -0.499416
v 0.722740 0.134608 -0.525108
v 0.262550 0.298015 -0.808062
v 0.276062 0.134592 -0.849638
v -0.262551 0.298015 -0.808062
v -0.276062 0.134592 -0.849638
v -0.687367 0.298030 -0.499416
v -0.722740 0.134607 -0.525108
v -0.849632 0.298055 -0.000014
v -0.893356 0.134633 -0.000007
v 0.849631 0.298055 -0.000015
v 0.893355 0.134633 -0.000007
v 0.153317 -0.219995 -0.422814
v 0.077597 -0.115707 -0.228510
v -0.149963 -0.221043 -0.428150
v -0.081847 -0.116258 -0.231315
v 0.051587 -0.267684 0.000013
v 0.020863 -0.184316 0.000009
v -0.064237 -0.271659 0.000013
v -0.040029 -0.186406 0.000009
vn 0.0958 -0.9949 0.0312
vn -0.0579 -0.9981 -0.0188
vn 0.8890 -0.3554 0.2889
vn 0.1965 0.9784 0.0638
vn -0.0903 -0.9955 -0.0293
vn 0.1930 -0.9792 0.0628
vn 0.6956 0.6820 0.2260
vn 0.0592 -0.9949 0.0816
vn -0.0358 -0.9981 -0.0492
vn 0.5494 -0.3553 0.7562
vn 0.1214 0.9784 0.1671
vn -0.0558 -0.9955 -0.0768
vn 0.1193 -0.9792 0.1643
vn 0.4299 0.6820 0.5917
vn -0.0000 0.6820 0.7314
vn 0.0000 -0.9949 0.1008
vn -0.0957 -0.9949 0.0311
vn -0.9514 0.0591 -0.3022
vn 0.0000 -0.3553 0.9347
vn -0.0000 0.9784 0.2065
vn 0.0000 -0.9955 -0.0949
vn 0.0000 -0.9792 0.2030
vn 0.0558 -0.9955 -0.0768
vn -0.1193 -0.9792 0.1643
vn -0.4299 0.6820 0.5917
vn -0.0592 -0.9949 0.0816
vn 0.0000 -0.9949 0.1007
vn 0.0358 -0.9981 -0.0492
vn -0.5494 -0.3553 0.7562
vn -0.1214 0.9784 0.1671
vn -0.8890 -0.3554 0.2889
vn -0.1965 0.9784 0.0638
vn 0.0903 -0.9955 -0.0293
vn -0.1930 -0.9792 0.0628
vn -0.6956 0.6820 0.2260
vn -0.0958 -0.9949 0.0312
vn 0.0579 -0.9981 -0.0188
vn 0.5209 0.8367 0.1692
vn -0.0000 0.8367 0.5477
vn -0.0563 0.9954 0.0774
vn 0.3219 0.8367 0.4431
vn -0.3219 0.8367 0.4431
vn -0.5209 0.8367 0.1692
vn -0.0638 0.9977 -0.0208
vn -0.1111 0.9931 -0.0362
vn -0.0394 0.9977 -0.0543
vn -0.0687 0.9931 -0.0946
vn 0.0000 0.9977 -0.0671
vn -0.0000 0.9931 -0.1169
vn 0.0394 0.9977 -0.0543
vn 0.0687 0.9931 -0.0946
vn 0.0638 0.9977 -0.0208
vn 0.1111 0.9931 -0.0362
vn 0.9217 0.2466 0.2995
vn 0.5696 0.2466 0.7840
vn -0.0000 0.2466 0.9691
vn -0.5696 0.2466 0.7840
vn -0.9217 0.2466 0.2995
vn 0.0563 0.9954 0.0774
vn 0.0910 0.9954 0.0295
vn -0.0910 0.9954 0.0295
vn 0.0591 -0.9949 0.0814
vn 0.0957 -0.9949 0.0311
vn -0.0591 -0.9949 0.0814
vn -0.0000 0.9954 0.0957
vn -0.0151 0.9574 -0.2885
vn 0.9465 0.0755 -0.3137
vn -0.0073 0.6002 -0.7998
vn 0.0073 -0.6095 0.7928
vn -0.9475 0.2274 -0.2249
vn 0.0134 -0.9933 0.1146
vn 0.9303 0.2476 -0.2706
vn 0.0958 -0.9949 -0.0311
vn -0.0579 -0.9981 0.0189
vn 0.8890 -0.3554 -0.2888
vn 0.1965 0.9784 -0.0639
vn -0.0903 -0.9955 0.0294
vn 0.1930 -0.9792 -0.0627
vn 0.6956 0.6819 -0.2260
vn 0.0592 -0.9949 -0.0815
vn -0.0358 -0.9981 0.0493
vn 0.5494 -0.3554 -0.7562
vn 0.1214 0.9784 -0.1672
vn -0.0558 -0.9955 0.0769
vn 0.1193 -0.9792 -0.1642
vn 0.4299 0.6819 -0.5917
vn -0.0000 0.6819 -0.7314
vn 0.0000 -0.9949 -0.1007
vn -0.0957 -0.9949 -0.0310
vn -0.9514 0.0591 0.3022
vn -0.0000 -0.3554 -0.9347
vn -0.0000 0.9784 -0.2066
vn 0.0000 -0.9955 0.0950
vn 0.0000 -0.9792 -0.2029
vn 0.0558 -0.9955 0.0769
vn -0.1193 -0.9792 -0.1642
vn -0.4299 0.6819 -0.5917
vn -0.0592 -0.9949 -0.0815
vn 0.0000 -0.9949 -0.1006
vn 0.0358 -0.9981 0.0493
vn -0.5494 -0.3554 -0.7562
vn -0.1214 0.9784 -0.1672
vn -0.8890 -0.3554 -0.2888
vn -0.1965 0.9784 -0.0639
vn 0.0903 -0.9955 0.0294
vn -0.1930 -0.9792 -0.0627
vn -0.6956 0.6819 -0.2260
vn -0.0958 -0.9949 -0.0311
vn 0.0579 -0.9981 0.0189
vn 0.5209 0.8367 -0.1693
vn -0.0000 0.8366 -0.5478
vn -0.0563 0.9954 -0.0775
vn 0.3219 0.8366 -0.4431
vn -0.3219 0.8366 -0.4431
vn -0.5209 0.8367 -0.1693
vn -0.0638 0.9978 0.0207
vn -0.1111 0.9932 0.0361
vn -0.0394 0.9978 0.0542
vn -0.0687 0.9932 0.0945
vn 0.0000 0.9978 0.0670
vn -0.0000 0.9932 0.1168
vn 0.0394 0.9978 0.0542
vn 0.0687 0.9932 0.0945
vn 0.0638 0.9978 0.0207
vn 0.1111 0.9932 0.0361
vn 0.9217 0.2466 -0.2995
vn 0.5696 0.2466 -0.7840
vn -0.0000 0.2466 -0.9691
vn -0.5696 0.2466 -0.7840
vn -0.9217 0.2466 -0.2995
vn 0.0563 0.9954 -0.0775
vn 0.0910 0.9954 -0.0296
vn -0.0910 0.9954 -0.0296
vn 0.0591 -0.9949 -0.0813
vn 0.0957 -0.9949 -0.0310
vn -0.0591 -0.9949 -0.0813
vn -0.0000 0.9954 -0.0958
vn -0.0151 0.9574 0.2884
vn 0.9465 0.0755 0.3137
vn -0.0073 0.6002 0.7998
vn 0.0073 -0.6096 -0.7927
vn -0.9475 0.2274 0.2249
vn 0.0134 -0.9933 -0.1145
vn 0.9303 0.2476 0.2705
usemtl None
s off
f 100//1 56//1 6//1 7//1
f 101//2 100//2 7//2 8//2
f 55//3 99//3 4//3 5//3
f 54//4 53//4 1//4 2//4
f 97//5 101//5 8//5
f 56//6 55//6 5//6 6//6
f 98//7 54//7 2//7 3//7
f 7//8 6//8 14//8 15//8
f 8//9 7//9 15//9 16//9
f 5//10 4//10 12//10 13//10
f 2//11 1//11 9//11 10//11
f 97//12 8//12 16//12
f 6//13 5//13 13//13 14//13
f 3//14 2//14 10//14 11//14
f 11//15 10//15 18//15 19//15
f 15//16 14//16 22//16 23//16
f 27//17 91//17 123//17 47//17
f 23//18 24//18 52//18 51//18
f 13//19 12//19 20//19 21//19
f 10//20 9//20 17//20 18//20
f 97//21 16//21 24//21
f 14//22 13//22 21//22 22//22
f 97//23 24//23 32//23
f 22//24 21//24 29//24 30//24
f 19//25 18//25 26//25 27//25
f 23//26 22//26 30//26 31//26
f 11//27 19//27 45//27 43//27
f 24//28 23//28 31//28 32//28
f 21//29 20//29 28//29 29//29
f 18//30 17//30 25//30 26//30
f 29//31 28//31 92//31 93//31
f 26//32 25//32 89//32 90//32
f 97//33 32//33 96//33
f 30//34 29//34 93//34 94//34
f 27//35 26//35 90//35 91//35
f 31//36 30//36 94//36 95//36
f 32//37 31//37 95//37 96//37
f 1//38 53//38 103//38 34//38
f 17//39 9//39 36//39 38//39
f 28//40 20//40 46//40 48//40
f 9//41 1//41 34//41 36//41
f 25//42 17//42 38//42 40//42
f 89//43 25//43 40//43 113//43
f 102//44 114//44 33//44
f 103//45 102//45 33//45 34//45
f 33//46 114//46 35//46
f 34//47 33//47 35//47 36//47
f 35//48 114//48 37//48
f 36//49 35//49 37//49 38//49
f 37//50 114//50 39//50
f 38//51 37//51 39//51 40//51
f 39//52 114//52 112//52
f 40//53 39//53 112//53 113//53
f 126//54 125//54 41//54 42//54
f 42//55 41//55 43//55 44//55
f 44//56 43//56 45//56 46//56
f 46//57 45//57 47//57 48//57
f 48//58 47//58 123//58 124//58
f 12//59 4//59 42//59 44//59
f 4//60 99//60 126//60 42//60
f 92//61 28//61 48//61 124//61
f 3//62 11//62 43//62 41//62
f 98//63 3//63 41//63 125//63
f 19//64 27//64 47//64 45//64
f 20//65 12//65 44//65 46//65
f 52//66 50//66 132//66 134//66
f 16//67 15//67 49//67 50//67
f 24//68 16//68 50//68 52//68
f 15//69 23//69 51//69 49//69
f 51//70 52//70 134//70 133//70
f 49//71 51//71 133//71 131//71
f 50//72 49//72 131//72 132//72
f 100//73 63//73 62//73 56//73
f 101//74 64//74 63//74 100//74
f 55//75 61//75 60//75 99//75
f 54//76 58//76 57//76 53//76
f 97//77 64//77 101//77
f 56//78 62//78 61//78 55//78
f 98//79 59//79 58//79 54//79
f 63//80 71//80 70//80 62//80
f 64//81 72//81 71//81 63//81
f 61//82 69//82 68//82 60//82
f 58//83 66//83 65//83 57//83
f 97//84 72//84 64//84
f 62//85 70//85 69//85 61//85
f 59//86 67//86 66//86 58//86
f 67//87 75//87 74//87 66//87
f 71//88 79//88 78//88 70//88
f 83//89 121//89 123//89 91//89
f 79//90 129//90 130//90 80//90
f 69//91 77//91 76//91 68//91
f 66//92 74//92 73//92 65//92
f 97//93 80//93 72//93
f 70//94 78//94 77//94 69//94
f 97//95 88//95 80//95
f 78//96 86//96 85//96 77//96
f 75//97 83//97 82//97 74//97
f 79//98 87//98 86//98 78//98
f 67//99 117//99 119//99 75//99
f 80//100 88//100 87//100 79//100
f 77//101 85//101 84//101 76//101
f 74//102 82//102 81//102 73//102
f 85//103 93//103 92//103 84//103
f 82//104 90//104 89//104 81//104
f 97//105 96//105 88//105
f 86//106 94//106 93//106 85//106
f 83//107 91//107 90//107 82//107
f 87//108 95//108 94//108 86//108
f 88//109 96//109 95//109 87//109
f 57//110 105//110 103//110 53//110
f 73//111 109//111 107//111 65//111
f 84//112 122//112 120//112 76//112
f 65//113 107//113 105//113 57//113
f 81//114 111//114 109//114 73//114
f 89//115 113//115 111//115 81//115
f 102//116 104//116 114//116
f 103//117 105//117 104//117 102//117
f 104//118 106//118 114//118
f 105//119 107//119 106//119 104//119
f 106//120 108//120 114//120
f 107//121 109//121 108//121 106//121
f 108//122 110//122 114//122
f 109//123 111//123 110//123 108//123
f 110//124 112//124 114//124
f 111//125 113//125 112//125 110//125
f 126//126 116//126 115//126 125//126
f 116//127 118//127 117//127 115//127
f 118//128 120//128 119//128 117//128
f 120//129 122//129 121//129 119//129
f 122//130 124//130 123//130 121//130
f 68//131 118//131 116//131 60//131
f 60//132 116//132 126//132 99//132
f 92//133 124//133 122//133 84//133
f 59//134 115//134 117//134 67//134
f 98//135 125//135 115//135 59//135
f 75//136 119//136 121//136 83//136
f 76//137 120//137 118//137 68//137
f 130//138 134//138 132//138 128//138
f 72//139 128//139 127//139 71//139
f 80//140 130//140 128//140 72//140
f 71//141 127//141 129//141 79//141
f 129//142 133//142 134//142 130//142
f 127//143 131//143 133//143 129//143
f 128//144 132//144 131//144 127//144
